<svg width="239" height="215" viewBox="0 0 239 215" fill="none" xmlns="http://www.w3.org/2000/svg">
<path d="M155.25 59.75H179.125M155.25 107.5H179.125M179.125 155.25H59.75M59.75 59.75V107.5H107.5V59.75H59.75ZM35.875 203H203C209.332 203 215.405 200.485 219.882 196.007C224.36 191.53 226.875 185.457 226.875 179.125V35.875C226.875 29.543 224.36 23.4703 219.882 18.9928C215.405 14.5154 209.332 12 203 12H35.875C29.543 12 23.4703 14.5154 18.9928 18.9928C14.5154 23.4703 12 29.543 12 35.875V179.125C12 185.457 14.5154 191.53 18.9928 196.007C23.4703 200.485 29.543 203 35.875 203Z" stroke="black" stroke-width="23.875" stroke-linecap="round" stroke-linejoin="round"/>
</svg>
