<svg width="305" height="219" viewBox="0 0 305 219" fill="none" xmlns="http://www.w3.org/2000/svg">
<path d="M152.884 23.505C175.545 35.0096 186.528 46.7265 196.785 69.2681C209.608 97.4515 205.737 129.54 196.785 148.555C196.785 148.555 185.412 171.251 172.573 183.144C152.975 201.298 122.996 208.952 108.451 208.952C93.9066 208.952 64.0004 201.066 43.5317 183.144C38.8481 179.043 34.6921 174.288 31.0569 169.308M152.884 23.505C136.64 15.2583 122.419 12.2695 108.451 11C94.6737 11.9669 85.205 12.9073 73.3309 17.3935M152.884 23.505C152.884 23.505 158.091 34.4371 159.27 44.5241C160.523 55.2537 160.067 64.6286 157.573 74.5894M31.0569 169.308C19.9804 154.136 13.7387 136.876 12.1361 129.665C10.547 122.514 9.38667 111.462 10.352 99.5995M31.0569 169.308C31.0569 169.308 61.8861 169.094 80.2486 162.923C81.9092 162.365 83.5023 161.826 85.0378 161.296M33.9534 47.983C33.9534 47.983 41.3062 63.4299 48.0548 71.9288C56.2914 82.3016 60.444 88.855 70.9364 96.9389C82.4198 105.786 91.1194 109.094 104.461 114.765C115.968 119.657 135.468 122.747 135.468 122.747M135.468 122.747C130.359 130.236 125.743 135.463 118.296 142.436C107.257 152.773 98.2935 156.719 85.0378 161.296M135.468 122.747C136.541 121.174 137.635 119.502 138.783 117.692C147.319 104.229 150.897 95.8733 155.811 80.7089C156.483 78.6346 157.07 76.6001 157.573 74.5894M10.352 99.5995C10.6796 95.5729 11.2522 91.4529 12.1361 87.3605C15.7088 70.8186 19.7497 61.2719 30.2285 47.983C41.3847 33.8349 50.5187 27.4484 66.9454 20.0462C69.1682 19.0446 71.2853 18.1664 73.3309 17.3935M10.352 99.5995C10.352 99.5995 29.1471 127.799 43.5317 139.775C58.4099 152.163 85.0378 161.296 85.0378 161.296M157.573 74.5894C157.573 74.5894 140.874 74.9147 130.801 71.9288C121.445 69.1556 116.619 66.8928 108.451 61.5523C100.179 56.1426 95.5351 51.9655 89.0288 44.5241C80.9715 35.309 73.3309 17.3935 73.3309 17.3935" stroke="black" stroke-width="20"/>
<path d="M192.528 59.6898C192.528 59.6898 191.553 82.7948 188.537 93.214C185.559 103.502 182.796 108.968 177.894 118.49C171.365 131.174 167.348 138.364 157.939 149.088C150.274 157.825 145.116 162.017 135.856 169.042C126.187 176.379 120.032 179.479 109.516 185.538C99.5279 191.294 75.4595 202.034 75.4595 202.034" stroke="black" stroke-width="20"/>
<g filter="url(#filter0_d_6_26)">
<path d="M261.5 192.5L258.095 201.903L261.5 192.5ZM299.787 161.051C300.92 155.645 297.456 150.345 292.051 149.213C286.645 148.08 281.345 151.544 280.213 156.949L299.787 161.051ZM159 193.5C165.692 200.931 165.69 200.932 165.689 200.933C165.689 200.933 165.688 200.934 165.688 200.934C165.687 200.935 165.687 200.935 165.688 200.935C165.689 200.934 165.692 200.931 165.697 200.926C165.708 200.916 165.728 200.898 165.757 200.873C165.815 200.821 165.909 200.738 166.036 200.626C166.291 200.402 166.682 200.062 167.197 199.622C168.229 198.741 169.755 197.463 171.685 195.922C175.554 192.83 180.99 188.719 187.267 184.626C200.367 176.084 215.08 169 226.5 169L226.5 149C208.731 149 189.695 159.166 176.342 167.874C169.392 172.406 163.426 176.92 159.2 180.297C157.081 181.99 155.387 183.408 154.209 184.413C153.62 184.916 153.159 185.317 152.839 185.599C152.678 185.739 152.553 185.85 152.464 185.929C152.42 185.969 152.385 186.001 152.358 186.024C152.345 186.036 152.335 186.045 152.326 186.053C152.322 186.056 152.319 186.06 152.316 186.062C152.314 186.064 152.312 186.065 152.311 186.066C152.31 186.068 152.308 186.069 159 193.5ZM226.5 169C226.763 169 227.33 168.959 228.744 170.386C230.427 172.085 232.125 174.667 234.591 178.649C238.758 185.379 245.489 197.338 258.095 201.903L264.905 183.097C260.093 181.355 256.823 176.564 251.595 168.12C249.364 164.517 246.514 159.906 242.951 156.309C239.117 152.44 233.737 149 226.5 149L226.5 169ZM258.095 201.903C266.836 205.068 274.661 202.755 280.51 198.214C285.856 194.061 289.609 188.089 292.185 182.925C294.846 177.592 296.728 172.139 297.933 168.125C298.542 166.094 298.996 164.372 299.301 163.14C299.454 162.523 299.57 162.026 299.651 161.671C299.691 161.494 299.723 161.351 299.745 161.247C299.757 161.195 299.766 161.152 299.773 161.12C299.776 161.103 299.779 161.089 299.782 161.078C299.783 161.072 299.784 161.067 299.785 161.062C299.785 161.06 299.786 161.057 299.786 161.056C299.787 161.053 299.787 161.051 290 159C280.213 156.949 280.213 156.947 280.213 156.945C280.214 156.944 280.214 156.942 280.214 156.941C280.215 156.939 280.215 156.938 280.215 156.937C280.215 156.936 280.215 156.936 280.215 156.939C280.213 156.946 280.21 156.961 280.205 156.986C280.194 157.035 280.175 157.121 280.148 157.24C280.094 157.478 280.007 157.849 279.888 158.332C279.648 159.299 279.279 160.703 278.777 162.377C277.757 165.774 276.257 170.051 274.289 173.997C272.236 178.112 270.112 180.966 268.243 182.417C266.875 183.479 266.147 183.547 264.905 183.097L258.095 201.903Z" fill="black"/>
</g>
<defs>
<filter id="filter0_d_6_26" x="148.311" y="148.998" width="155.691" height="62.3668" filterUnits="userSpaceOnUse" color-interpolation-filters="sRGB">
<feFlood flood-opacity="0" result="BackgroundImageFix"/>
<feColorMatrix in="SourceAlpha" type="matrix" values="0 0 0 0 0 0 0 0 0 0 0 0 0 0 0 0 0 0 127 0" result="hardAlpha"/>
<feOffset dy="4"/>
<feGaussianBlur stdDeviation="2"/>
<feComposite in2="hardAlpha" operator="out"/>
<feColorMatrix type="matrix" values="0 0 0 0 0 0 0 0 0 0 0 0 0 0 0 0 0 0 0.25 0"/>
<feBlend mode="normal" in2="BackgroundImageFix" result="effect1_dropShadow_6_26"/>
<feBlend mode="normal" in="SourceGraphic" in2="effect1_dropShadow_6_26" result="shape"/>
</filter>
</defs>
</svg>
